<?xml version="1.0" encoding="UTF-8"?>
<!DOCTYPE svg PUBLIC "-//W3C//DTD SVG 1.1//EN" "http://www.w3.org/Graphics/SVG/1.1/DTD/svg11.dtd">
<svg version="1.1" xmlns="http://www.w3.org/2000/svg"

height="720" width="1440">

<rect fill="#ffffff" x="0" y="0" width="1440" height="720"/>
<rect fill="#000000" x="0" y="0" width="88" height="720"/>
<path fill="#669933" d="M 88,0 L 88,720 L 1216,720 C 1299.5429,672.87899 1463.4114,508.43004 1375.4375,228.3125 C 1326.4017,94.226976 1211.0115,30.937509 1096.5625,27.34375 C 965.88511,22.181855 805.85088,96.367549 803.25,278.5 C 799.86173,404.12195 870.17817,531.64609 1032,528 C 1163.6999,525.07393 1223.8645,440.58465 1219.0625,342.59375 C 1215.3937,161.63516 964.7006,149.79292 959.59375,293.5 C 952.75073,412.48595 1110.624,409.45358 1098.5312,320.84375 C 1095.9089,299.24826 1080.025,299.5662 1072,319.46875 C 1055.4547,356.89881 1000.4575,344.25065 1004.8125,303.5 C 1004.0058,270.41881 1030.6961,250.55384 1064,251.78125 C 1129.0345,254.09606 1142.6261,293.60789 1143.375,340.65625 C 1143.4513,397.43316 1088.0352,422.5975 1034.6875,423.6875 C 953.49587,426.26548 920.30378,355.20692 923.03125,285.8125 C 928.22479,198.60381 983.4773,148.94761 1073.3125,153.75 C 1180.6005,153.39984 1263.3626,245.21167 1264,352 C 1261.9214,492.76444 1169.4351,564.01476 1018.2812,567.03125 C 883.5063,566.8874 730.26747,479.35477 600,376 L 88,0 z"/>
</svg>